<svg xmlns="http://www.w3.org/2000/svg">
	
	<symbol id="etapes_menu" viewBox="0 0 24.75 24.75">
		<path d="M0 3.875a2 2 0 0 1 2-2h20.75a2 2 0 0 1 0 4H2a2 2 0 0 1-2-2zm22.75 6.5H2a2 2 0 0 0 0 4h20.75a2 2 0 0 0 0-4zm0 8.5H2a2 2 0 0 0 0 4h20.75a2 2 0 0 0 0-4z"/>
	</symbol>
	
	<symbol id="etapes_close" viewBox="0 0 492 492">
		<path d="M300.188 246L484.14 62.04c5.06-5.064 7.852-11.82 7.86-19.024 0-7.208-2.792-13.972-7.86-19.028L468.02 7.872C462.952 2.796 456.196.016 448.984.016c-7.2 0-13.956 2.78-19.024 7.856L246.008 191.82 62.048 7.872C56.988 2.796 50.228.016 43.02.016c-7.2 0-13.96 2.78-19.02 7.856L7.872 23.988c-10.496 10.496-10.496 27.568 0 38.052L191.828 246 7.872 429.952C2.808 435.024.02 441.78.02 448.984c0 7.204 2.788 13.96 7.852 19.028l16.124 16.116c5.06 5.072 11.824 7.856 19.02 7.856 7.208 0 13.968-2.784 19.028-7.856l183.96-183.952 183.952 183.952c5.068 5.072 11.824 7.856 19.024 7.856h.008c7.204 0 13.96-2.784 19.028-7.856l16.12-16.116c5.06-5.064 7.852-11.824 7.852-19.028 0-7.204-2.792-13.96-7.852-19.028L300.188 246z"/>
	</symbol>

	<symbol id="etapes_mail" viewBox="0 0 1024 1024">
		<path d="M544.059897 959.266898h-64.949141c-228.633593 0-415.697442-187.063849-415.697442-415.697442v-64.949141c0-228.633593 187.063849-415.697442 415.697442-415.697442h64.949141c228.633593 0 415.697442 187.063849 415.697442 415.697442v64.949141C959.756315 772.203049 772.692466 959.266898 544.059897 959.266898z" fill="#DB4437" p-id="2259"></path><path d="M305.878574 312.986386h409.365735v387.916361H305.878574V312.986386z" fill="#E67C73" p-id="2260"></path><path d="M310.328379 312.986386h-9.35524c-22.818308 0-41.416161 19.167133-41.416161 42.807621V658.095125c0 23.640488 18.528229 42.807622 41.416161 42.807622h21.951077V420.55373l187.637225 149.370534 187.637225-149.370534v280.349017h21.951077c22.886909 0 41.416161-19.168157 41.416162-42.807622V355.794007c0-23.640488-18.574304-42.807622-41.416162-42.807621h-9.35524L510.561441 484.262947 310.328379 312.986386z" fill="#FFFFFF" p-id="2261" />
	</symbol>

	<symbol id="etapes_git" viewBox="0 0 1024 1024">
		<path d="M544.059897 959.266898h-64.949141c-228.633593 0-415.697442-187.063849-415.697442-415.697442v-64.949141c0-228.633593 187.063849-415.697442 415.697442-415.697442h64.949141c228.633593 0 415.697442 187.063849 415.697442 415.697442v64.949141C959.756315 772.203049 772.692466 959.266898 544.059897 959.266898z" fill="#171515" p-id="2405"></path><path d="M510.25018 263.810197c-136.001664 0-246.287424 110.272449-246.287424 246.317117 0 108.810341 70.566177 201.127938 168.449614 233.700801 12.315293 2.258691 16.811173-5.344681 16.811173-11.87195 0-5.847409-0.212968-21.336746-0.332763-41.891244-68.513287 14.884221-82.969523-33.01723-82.969523-33.01723-11.199258-28.453773-27.346953-36.028477-27.346953-36.028477-22.362679-15.282512 1.691459-14.972275 1.691458-14.972275 24.717616 1.741629 37.727103 25.382117 37.727103 25.382117 21.971555 37.639048 57.645768 26.770506 71.681188 20.46542 2.238213-15.917321 8.600637-26.770506 15.6378-32.927128-54.692882-6.216008-112.191211-27.346953-112.191211-121.73075 0-26.888253 9.596877-48.875166 25.352425-66.092822-2.533092-6.231366-10.985266-31.273553 2.414322-65.183612 0 0 20.680436-6.62249 67.731038 25.249013 19.646312-5.463452 40.715824-8.195178 61.66247-8.2904 20.915929 0.095221 41.987489 2.827971 61.662469 8.2904 47.022957-31.872526 67.664486-25.249012 67.664486-25.249013 13.437471 33.910058 4.98325 58.952245 2.451181 65.183612 15.78524 17.217656 25.317612 39.203545 25.317613 66.092822 0 94.620315-57.587406 115.441023-112.457421 121.538259 8.844321 7.604396 16.721071 22.637081 16.721071 45.612044 0 32.927128-0.302046 59.492857-0.302046 67.56824 0 6.586654 4.436495 14.249412 16.936087 11.843282 97.787192-32.634297 168.295007-124.89046 168.295007-233.672133C756.569344 374.082647 646.281536 263.810197 510.25018 263.810197z" fill="#FFFFFF" p-id="2406" />
	</symbol>

	<symbol id="etapes_ins" viewBox="0 0 1024 1024">
		<path d="M544.059897 959.266898h-64.949141c-228.633593 0-415.697442-187.063849-415.697442-415.697442v-64.949141c0-228.633593 187.063849-415.697442 415.697442-415.697442h64.949141c228.633593 0 415.697442 187.063849 415.697442 415.697442v64.949141C959.756315 772.203049 772.692466 959.266898 544.059897 959.266898z" fill="#181818" p-id="1832"></path><path d="M509.715712 393.059337c-65.754939 0-119.059433 53.304494-119.059434 119.059434s53.304494 119.059433 119.059434 119.059433 119.059433-53.304494 119.059433-119.059433S575.470651 393.059337 509.715712 393.059337zM509.715712 589.593102c-42.787144 0-77.474331-34.686163-77.474331-77.474331s34.686163-77.474331 77.474331-77.474331 77.474331 34.686163 77.474331 77.474331S552.50388 589.593102 509.715712 589.593102zM740.495369 411.102245c0-72.572992-57.189115-129.762107-129.762107-129.762107 0 0-51.329419-1.642312-101.016526-1.642312s-99.374214 1.642312-99.374214 1.642312c-72.572992 0-131.405443 58.832451-131.405443 131.405442 0 0-1.642312 46.455725-1.642312 94.447278 0 51.274129 1.642312 104.302174 1.642312 104.302175 0 72.572992 58.832451 131.405443 131.405443 131.405442 0 0 46.455725 1.642312 94.447278 1.642312 51.274129 0 105.944486-1.642312 105.944486-1.642312 72.572992 0 129.762107-57.189115 129.762106-129.762106 0 0 1.642312-52.43112 1.642312-102.659863C742.137681 461.34225 740.495369 411.102245 740.495369 411.102245zM698.955317 605.10394c0 59.510263-36.743149 96.253412-96.253412 96.253412 0 0-54.980594 1.347433-97.025421 1.347433-39.353032 0-87.302606-1.347433-87.302606-1.347433-59.509239 0-97.895724-38.387509-97.895724-97.895724 0 0-1.347433-53.338282-1.347433-95.383109 0-39.353032 1.347433-88.944918 1.347433-88.944918 0-59.510263 38.387509-96.253412 97.895724-96.253412 0 0 50.598365-1.347433 91.342858-1.347433 40.744493 0 92.98517 1.347433 92.985169 1.347433 59.510263 0 96.253412 36.743149 96.253412 96.253412 0 0 1.347433 51.348873 1.347433 91.637737C700.301726 551.959173 698.955317 605.10394 698.955317 605.10394zM634.472043 360.019582c-15.887629 0-28.768106 12.943958-28.768106 28.910426 0 15.966468 12.880477 28.909402 28.768106 28.909402 15.887629 0 28.767082-12.942934 28.767082-28.909402C663.239125 372.962516 650.359672 360.019582 634.472043 360.019582z" fill="#FFFFFF" p-id="1833"/>
	</symbol>

</svg>